<?xml version="1.0" encoding="UTF-8" standalone="no"?>
<!-- Created with Inkscape (http://www.inkscape.org/) -->

<svg
   xmlns:dc="http://purl.org/dc/elements/1.1/"
   xmlns:cc="http://creativecommons.org/ns#"
   xmlns:rdf="http://www.w3.org/1999/02/22-rdf-syntax-ns#"
   xmlns:svg="http://www.w3.org/2000/svg"
   xmlns="http://www.w3.org/2000/svg"
   xmlns:sodipodi="http://sodipodi.sourceforge.net/DTD/sodipodi-0.dtd"
   xmlns:inkscape="http://www.inkscape.org/namespaces/inkscape"
   width="430.85718pt"
   height="236.00005pt"
   viewBox="0 0 538.57149 295.00006"
   id="svg4142"
   version="1.1"
   inkscape:version="0.91 r13725"
   sodipodi:docname="logo_pwek.svg">
  <defs
     id="defs4144" />
  <sodipodi:namedview
     id="base"
     pagecolor="#ffffff"
     bordercolor="#666666"
     borderopacity="1.0"
     inkscape:pageopacity="0.0"
     inkscape:pageshadow="2"
     inkscape:zoom="0.98994949"
     inkscape:cx="377.84981"
     inkscape:cy="126.04456"
     inkscape:document-units="px"
     inkscape:current-layer="layer1"
     showgrid="false"
     inkscape:window-width="1280"
     inkscape:window-height="962"
     inkscape:window-x="-8"
     inkscape:window-y="-8"
     inkscape:window-maximized="1"
     units="pt"
     fit-margin-top="10"
     fit-margin-left="10"
     fit-margin-right="10"
     fit-margin-bottom="10"
     showguides="false" />
  <metadata
     id="metadata4147">
    <rdf:RDF>
      <cc:Work
         rdf:about="">
        <dc:format>image/svg+xml</dc:format>
        <dc:type
           rdf:resource="http://purl.org/dc/dcmitype/StillImage" />
        <dc:title></dc:title>
      </cc:Work>
    </rdf:RDF>
  </metadata>
  <g
     inkscape:label="Calque 1"
     inkscape:groupmode="layer"
     id="layer1"
     transform="translate(-79.642853,-165.57649)">
    <rect
       style="fill:#212121;fill-opacity:1;stroke:none;stroke-width:20;stroke-linejoin:round;stroke-miterlimit:4;stroke-dasharray:none;stroke-opacity:1"
       id="rect4701"
       width="513.57147"
       height="270.00006"
       x="92.142853"
       y="178.07649"
       ry="87.88327" />
    <g
       id="g4711"
       transform="matrix(0.83992725,0,0,0.83511357,52.507252,44.199828)">
      <path
         id="path4718"
         style="font-style:normal;font-variant:normal;font-weight:bold;font-stretch:normal;font-size:110px;line-height:125%;font-family:Calibri;-inkscape-font-specification:'Calibri, Bold';text-align:start;letter-spacing:0px;word-spacing:0px;writing-mode:lr-tb;text-anchor:start;fill:#ffffff;fill-opacity:1;stroke:#212121;stroke-width:3.53506136;stroke-linecap:butt;stroke-linejoin:miter;stroke-miterlimit:4;stroke-dasharray:none;stroke-opacity:1"
         d="m 241.5956,282.80075 c 0,11.22273 -1.33975,21.15845 -4.01925,29.80717 -2.67953,8.64871 -7.02874,13.88383 -12.17723,19.83402 -5.09679,5.89042 -10.95924,11.03258 -18.44017,14.13527 -7.41404,3.07496 -17.02438,5.32072 -25.2954,4.86619 -4.58161,-0.25178 -7.41509,4.30832 -9.92283,7.68777 -4.04549,5.45174 -0.81055,48.53892 -1.44595,52.97832 -0.63297,4.42242 -2.62223,6.23924 -3.17388,7.06293 -0.47286,0.82369 -1.30036,1.49293 -2.48249,2.00773 -1.18215,0.51482 -2.75833,0.92667 -4.72856,1.23554 -1.97023,0.30888 -4.49212,0.46332 -7.56569,0.46332 -2.99476,0 -5.51666,-0.15444 -7.56569,-0.46332 -1.97022,-0.30887 -3.5464,-0.72072 -4.72855,-1.23554 -1.18213,-0.5148 -2.81769,-1.843 -2.81769,-1.843 0,0 -4.20199,-3.25267 -4.39648,-9.20441 -0.56214,-17.20231 0.39121,-156.67557 1.676,-168.2386 0.62112,-5.59007 0.81334,-10.45104 3.84274,-14.43492 2.10354,-2.76631 6.19669,-4.98244 9.02469,-5.35391 11.47001,-1.50665 20.71882,-1.30924 29.89266,-1.16481 6.75048,0.10627 13.216,1.37074 16.44717,1.7826 3.30998,0.30888 7.25044,1.08108 11.82137,2.31661 4.57095,1.13257 9.1813,3.29474 13.83104,6.48653 4.72855,3.19179 8.74782,7.25874 12.05781,12.20085 3.30999,4.83917 5.83188,10.55351 7.56569,17.143 1.73379,6.48654 2.60069,13.79676 2.60069,21.93066 z m -32.5088,2.93439 c 0,-7.00133 -0.94571,-12.76715 -2.83714,-17.29744 -1.89142,-4.53027 -4.21629,-7.8765 -6.97461,-10.03869 -2.75833,-2.16217 -5.67427,-3.50066 -8.74784,-4.01545 -2.99474,-0.61778 -6.1077,-0.92667 -9.33888,-0.92667 0,0 -9.51894,-0.3342 -12.56956,2.8004 -3.68902,3.79057 -5.55235,60.201 -0.6704,64.99934 3.28787,3.23156 9.91987,1.63074 13.4752,1.39778 4.95398,-0.32461 9.57651,-2.27295 12.8865,-4.02328 3.38879,-1.75033 6.14712,-4.16992 8.27498,-7.25875 2.12783,-3.19177 3.74342,-6.94984 4.84676,-11.27419 1.10333,-4.42731 1.65499,-9.215 1.65499,-14.36305 z"
         inkscape:connector-curvature="0"
         sodipodi:nodetypes="ssssssscssscscssasscccccsssscsssscccs" />
      <path
         id="path4720"
         style="font-style:normal;font-variant:normal;font-weight:bold;font-stretch:normal;font-size:110px;line-height:125%;font-family:Calibri;-inkscape-font-specification:'Calibri, Bold';text-align:start;letter-spacing:0px;word-spacing:0px;writing-mode:lr-tb;text-anchor:start;fill:#ffffff;fill-opacity:1;stroke:#ffffff;stroke-width:5;stroke-linecap:butt;stroke-linejoin:miter;stroke-miterlimit:4;stroke-dasharray:none;stroke-opacity:1"
         d="m 363.17792,411.72653 c -0.28235,1.53674 -0.68234,2.78534 -1.19997,3.74579 -0.47057,0.89643 -1.19995,1.60076 -2.18816,2.11301 -0.98821,0.44821 -2.25876,0.73635 -3.81165,0.86441 -1.55289,0.19209 -3.5293,0.28813 -5.92923,0.28813 -2.68227,0 -4.8469,-0.096 -6.4939,-0.28813 -1.59997,-0.12806 -2.87052,-0.4162 -3.81165,-0.86441 -0.94115,-0.51225 -1.62349,-1.21658 -2.04701,-2.11301 -0.42351,-0.96045 -0.75291,-2.20905 -0.98819,-3.74579 0,0 -3.13543,-71.03926 -8.24253,-79.0869 -2.46801,-3.88903 -6.90014,-3.33314 -9.19156,0.65892 -4.0432,7.04401 -11.15326,78.42798 -11.15326,78.42798 -0.23529,1.4727 -0.5647,2.68928 -0.98822,3.64975 -0.42351,0.89642 -1.10584,1.60075 -2.04698,2.113 -0.89409,0.51225 -2.14112,0.8324 -3.74107,0.96046 -1.55289,0.19209 -3.62342,0.28813 -6.21158,0.28813 -2.72932,0 -4.91749,-0.096 -6.5645,-0.28813 -1.59995,-0.12806 -2.87049,-0.4162 -3.81164,-0.86441 -0.94115,-0.51225 -1.62348,-1.21658 -2.04699,-2.11301 -0.42352,-0.96045 -0.77646,-2.20905 -1.05881,-3.74579 L 260.89874,303.29097 c -0.42353,-2.30509 -0.65882,-4.09794 -0.70587,-5.37855 -0.0471,-1.34464 0.21175,-2.36913 0.77645,-3.07346 0.61175,-0.70434 1.57642,-1.12054 2.89402,-1.24859 1.36467,-0.19209 3.24697,-0.28813 5.64689,-0.28813 2.2117,0 3.95282,0.064 5.22336,0.19209 1.31761,0.064 2.30582,0.28811 2.96462,0.67232 0.6588,0.32015 1.10585,0.83239 1.34114,1.53672 0.23528,0.64031 0.42351,1.56875 0.56469,2.78533 0,0 9.36005,72.04997 11.20365,75.0151 2.65019,4.26242 6.8901,1.56828 7.89521,-1.12485 2.12806,-6.8758 4.74759,-47.9835 12.46795,-72.51905 0.42788,-1.30715 0.75104,-2.59504 1.51514,-3.67629 0.4989,-0.70599 1.22287,-1.34466 1.92873,-1.72883 0.75292,-0.44822 1.76465,-0.73636 3.0352,-0.86441 1.27055,-0.19209 2.96462,-0.28813 5.08219,-0.28813 2.25875,0 4.04694,0.064 5.36455,0.19209 1.36466,0.12806 2.39992,0.4162 3.10578,0.86441 0.75292,0.38418 1.46408,0.91729 1.99931,1.57761 0.97256,1.19986 1.87153,2.87592 2.05976,4.15651 6.36725,20.24505 8.7502,66.15208 11.93392,74.66987 2.17407,3.95761 6.31412,3.46567 8.08167,0.37183 2.90095,-5.07768 11.71247,-76.35773 11.71247,-76.35773 0.14117,-1.02447 0.32941,-1.88888 0.5647,-2.59322 0.23527,-0.76838 0.68231,-1.34466 1.34112,-1.72883 0.65881,-0.44822 1.59995,-0.73636 2.82344,-0.86441 1.22349,-0.19209 2.94109,-0.28813 5.15279,-0.28813 2.07053,0 3.67048,0.096 4.79985,0.28813 1.17643,0.12805 2.02347,0.54425 2.5411,1.24859 0.51763,0.70433 0.72938,1.76083 0.63526,3.1695 -0.0471,1.34464 -0.28235,3.20153 -0.70584,5.57066 z"
         inkscape:connector-curvature="0"
         sodipodi:nodetypes="ccccsccccssccccsccccccccsccccsccaccsccaccsccccscsccc" />
      <path
         id="path4722"
         style="font-style:normal;font-variant:normal;font-weight:bold;font-stretch:normal;font-size:110px;line-height:125%;font-family:Calibri;-inkscape-font-specification:'Calibri, Bold';text-align:start;letter-spacing:0px;word-spacing:0px;writing-mode:lr-tb;text-anchor:start;fill:#ffffff;fill-opacity:1;stroke:#ffffff;stroke-width:3.94772363;stroke-linecap:round;stroke-linejoin:round;stroke-miterlimit:4;stroke-dasharray:none;stroke-opacity:1"
         d="m 471.25736,412.33309 c 0,1.97949 -0.0876,3.65183 -0.26273,5.017 -0.11678,1.29689 -0.32113,2.35489 -0.61306,3.17399 -0.29192,0.81911 -0.67143,1.43343 -1.13852,1.84297 -0.4087,0.34131 -0.87579,0.51196 -1.40126,0.51196 l -56.92607,0 c -1.92673,0 -3.56153,-0.64846 -4.9044,-1.94537 -1.28448,-1.36517 -1.92672,-3.54943 -1.92672,-6.55279 l 0,-115.49297 c 0,-3.00336 0.64224,-5.1535 1.92672,-6.45041 1.34287,-1.36517 2.97767,-2.04775 4.9044,-2.04775 l 56.57576,0 c 0.52547,0 0.99256,0.17065 1.40125,0.51195 0.40871,0.34129 0.75903,0.95561 1.05096,1.84296 0.29192,0.81911 0.49627,1.91125 0.61304,3.2764 0.17515,1.29691 0.26273,2.96924 0.26273,5.01699 0,1.91123 -0.0876,3.54943 -0.26273,4.9146 -0.11677,1.29689 -0.32112,2.35489 -0.61304,3.17399 -0.29193,0.81911 -0.64225,1.43344 -1.05096,1.84298 -0.40869,0.3413 -0.87578,0.51195 -1.40125,0.51195 0,0 -35.12716,-5.91148 -40.46129,0 -4.29707,4.76217 -4.35193,27.9793 0,32.35439 4.50298,4.52694 34.24321,0 34.24321,0 0.52547,0 0.99256,0.20478 1.40126,0.61434 0.46708,0.34128 0.84659,0.92147 1.13852,1.74057 0.29193,0.75084 0.49628,1.80884 0.61306,3.17401 0.17515,1.29691 0.26273,2.90098 0.26273,4.81222 0,1.97948 -0.0876,3.61768 -0.26273,4.91459 -0.11678,1.29691 -0.32113,2.35491 -0.61306,3.17401 -0.29193,0.75084 -0.67144,1.29691 -1.13852,1.6382 -0.4087,0.34129 -0.91082,0.42524 -1.40126,0.51193 -11.23418,1.98575 -30.28008,-4.08856 -34.24321,0 -3.97248,4.09821 -4.22982,34.13975 0,37.37139 4.56898,3.49076 40.8116,0 40.8116,0 0.52547,0 0.99256,0.20478 1.40126,0.61434 0.46709,0.34129 0.8466,0.92148 1.13852,1.74057 0.29193,0.81911 0.49628,1.91125 0.61306,3.2764 0.17515,1.2969 0.26273,2.9351 0.26273,4.91459 z"
         inkscape:connector-curvature="0"
         sodipodi:nodetypes="scscsscsscsscccscscsssscccscccassscscs" />
      <path
         id="path4724"
         style="font-style:normal;font-variant:normal;font-weight:bold;font-stretch:normal;font-size:110px;line-height:125%;font-family:Calibri;-inkscape-font-specification:'Calibri, Bold';text-align:start;letter-spacing:0px;word-spacing:0px;writing-mode:lr-tb;text-anchor:start;fill:#ffffff;fill-opacity:1;stroke:#ffffff;stroke-width:1.00009;stroke-linecap:butt;stroke-linejoin:miter;stroke-miterlimit:4;stroke-dasharray:none;stroke-opacity:1"
         d="m 574.42491,418.27158 c 0,0.75084 -0.17516,1.43342 -0.52547,2.04775 -0.29193,0.54607 -0.90498,1.02387 -1.83915,1.43341 -0.87579,0.34131 -2.10189,0.61434 -3.6783,0.81911 -1.57642,0.20477 -3.56153,0.30716 -5.95533,0.30716 -3.79509,0 -6.53922,-0.17064 -8.23239,-0.51193 -1.63481,-0.3413 -2.83172,-0.85324 -3.59073,-1.53582 -0.70063,-0.68258 -1.25529,-1.50168 -1.66399,-2.4573 0,0 -22.65782,-49.74135 -31.52096,-47.58965 -4.10663,0.99696 -2.72227,47.58965 -2.72227,47.58965 0,0.75085 -0.17515,1.3993 -0.52546,1.94537 -0.35032,0.54607 -0.96337,1.02387 -1.83915,1.43341 -0.87579,0.34131 -2.04351,0.61434 -3.50315,0.81911 -1.45964,0.20477 -3.32798,0.30716 -5.60503,0.30716 -2.21865,0 -4.08699,-0.10239 -5.60503,-0.30716 -1.45963,-0.20477 -2.62735,-0.4778 -3.50314,-0.81911 -0.87578,-0.40954 -1.51802,-0.88734 -1.92673,-1.43341 -0.35031,-0.54607 -0.52546,-1.19452 -0.52546,-1.94537 l 0,-124.8102 c 0,-0.75085 0.17515,-1.3993 0.52546,-1.94537 0.40871,-0.54607 1.05095,-0.98974 1.92673,-1.33103 0.87579,-0.3413 2.04351,-0.61434 3.50314,-0.81911 1.51804,-0.20477 3.38638,-0.30715 5.60503,-0.30715 2.27705,0 4.14539,0.10238 5.60503,0.30715 1.45964,0.20477 2.62736,0.47781 3.50315,0.81911 0.87578,0.34129 1.48883,0.78496 1.83915,1.33103 0.35031,0.54607 0.52546,1.19452 0.52546,1.94537 0,0 -1.71693,57.74196 2.95929,58.64572 7.66502,1.48139 30.233,-58.54334 30.233,-58.54334 0.4087,-0.88735 0.90498,-1.60406 1.48884,-2.15013 0.58385,-0.61433 1.34286,-1.09213 2.27703,-1.43342 0.93417,-0.3413 2.13108,-0.58021 3.59073,-0.71672 1.45964,-0.13651 3.32798,-0.20477 5.60503,-0.20477 2.33543,0 4.26215,0.10238 5.78018,0.30715 1.51802,0.20477 2.71493,0.51194 3.59072,0.9215 0.93417,0.34129 1.57641,0.78496 1.92673,1.33103 0.35031,0.54607 0.52546,1.16039 0.52546,1.84298 0,1.16038 -0.26273,2.3549 -0.78819,3.58355 -0.52547,1.22865 -1.51804,3.174 -2.97769,5.83607 0,0 -24.3674,49.44759 -25.07847,55.03869 1.78598,16.31582 23.20046,43.00046 30.15804,58.09938 0.29193,0.88735 0.43789,1.60406 0.43789,2.15013 z"
         inkscape:connector-curvature="0"
         sodipodi:nodetypes="sccsscccssccsscccsscscssscsscccsssccsccccs" />
      <g
         id="g4772"
         transform="matrix(1.2756315,0,0,1.3735285,335.6883,168.53621)">
        <path
           style="color:#000000;font-style:normal;font-variant:normal;font-weight:normal;font-stretch:normal;font-size:medium;line-height:normal;font-family:sans-serif;text-indent:0;text-align:start;text-decoration:none;text-decoration-line:none;text-decoration-style:solid;text-decoration-color:#000000;letter-spacing:normal;word-spacing:normal;text-transform:none;direction:ltr;block-progression:tb;writing-mode:lr-tb;baseline-shift:baseline;text-anchor:start;white-space:normal;clip-rule:nonzero;display:inline;overflow:visible;visibility:visible;opacity:1;isolation:auto;mix-blend-mode:normal;color-interpolation:sRGB;color-interpolation-filters:linearRGB;solid-color:#000000;solid-opacity:1;fill:#ffffff;fill-opacity:1;fill-rule:nonzero;stroke:none;stroke-width:10.74451923;stroke-linecap:butt;stroke-linejoin:miter;stroke-miterlimit:4;stroke-dasharray:none;stroke-dashoffset:0;stroke-opacity:1;color-rendering:auto;image-rendering:auto;shape-rendering:auto;text-rendering:auto;enable-background:accumulate"
           d="m 69.435694,40.445463 c -3.582175,-0.949166 -6.187771,1.095783 -7.572469,2.851679 -1.384698,1.755898 -2.192487,3.798404 -2.641684,6.123622 l -1.733033,8.970854 c -0.449197,2.325218 -0.470813,4.576036 0.133638,6.858996 0.604452,2.282961 2.204655,5.442318 5.78683,6.391484 3.582174,0.949166 6.18777,-1.095783 7.572468,-2.851681 1.384697,-1.755896 2.194374,-3.797902 2.643571,-6.123121 l 1.733033,-8.970853 c 0.449197,-2.325219 0.468926,-4.576536 -0.135525,-6.859497 -0.604453,-2.28296 -2.204655,-5.442317 -5.786829,-6.391483 z"
           id="rect4758"
           inkscape:connector-curvature="0" />
        <rect
           ry="5.9459329"
           y="19.78961"
           x="99.668106"
           height="21.028339"
           width="5.9488993"
           id="rect4770"
           style="fill:#545454;fill-opacity:1;stroke:#ffffff;stroke-width:10.74451923;stroke-miterlimit:4;stroke-dasharray:none;stroke-opacity:1"
           transform="matrix(0.96664222,0.25613049,-0.18967786,0.98184638,0,0)" />
      </g>
    </g>
  </g>
</svg>
